<svg width="30" height="40" viewBox="0 0 30 40" fill="none" xmlns="http://www.w3.org/2000/svg">
<path d="M26.93 5.93C25.5303 4.09352 23.7255 2.60497 21.6562 1.58032C19.587 0.555672 17.3091 0.022583 15 0.022583C12.6909 0.022583 10.413 0.555672 8.34375 1.58032C6.27447 2.60497 4.46969 4.09352 3.06999 5.93C1.07908 8.57641 0.00247192 11.7983 0.00247192 15.11C0.00247192 18.4217 1.07908 21.6436 3.06999 24.29L15 40L26.93 24.29C28.9209 21.6436 29.9975 18.4217 29.9975 15.11C29.9975 11.7983 28.9209 8.57641 26.93 5.93V5.93ZM15 6.84C16.5673 6.82613 18.1035 7.27822 19.4135 8.13891C20.7234 8.9996 21.7482 10.2301 22.3576 11.6742C22.967 13.1182 23.1337 14.7108 22.8364 16.2498C22.5392 17.7888 21.7914 19.2047 20.688 20.318C19.5846 21.4312 18.1754 22.1916 16.6391 22.5025C15.1028 22.8134 13.5088 22.6609 12.0594 22.0643C10.6099 21.4678 9.37038 20.454 8.49808 19.1517C7.62579 17.8495 7.16005 16.3174 7.15999 14.75C7.15729 12.6634 7.9802 10.6605 9.44907 9.17851C10.9179 7.69652 12.9135 6.85584 15 6.84V6.84Z" fill="#00C3CA"/>
</svg>
